<svg id="visual" viewBox="0 0 960 340" width="960" height="340" xmlns="http://www.w3.org/2000/svg" xmlns:xlink="http://www.w3.org/1999/xlink" version="1.1"><rect x="0" y="0" width="960" height="340" fill="#FF0066"></rect><g transform="translate(461.49401517459694 151.94022121679706)"><path d="M87.1 -100.5C112.6 -82.5 132.6 -54.7 147.9 -18.6C163.1 17.5 173.6 61.9 159.6 98C145.7 134.1 107.4 162 68.1 168.1C28.7 174.2 -11.6 158.5 -44.8 139.4C-78 120.2 -103.9 97.6 -117.1 70C-130.2 42.3 -130.5 9.6 -127.8 -25.5C-125.1 -60.6 -119.5 -98.1 -97.6 -116.7C-75.8 -135.4 -37.9 -135.2 -3.5 -131C30.9 -126.8 61.7 -118.5 87.1 -100.5" fill="#BB004B"></path></g></svg>