<svg id="visual" viewBox="0 0 960 340" width="960" height="340"
    xmlns="http://www.w3.org/2000/svg"
    xmlns:xlink="http://www.w3.org/1999/xlink" version="1.1">
    <rect x="0" y="0" width="960" height="340" fill="#FF0066"></rect>
    <g transform="translate(472.1962614398501 180.66995321987707)">
        <path d="M124.4 -146.6C159.3 -119 184.3 -78 183.4 -38.9C182.5 0.2 155.8 37.4 132 73.9C108.1 110.4 87.2 146.4 57.5 156.7C27.7 167 -10.9 151.6 -48.1 136.3C-85.3 121 -121 105.8 -143.3 77.7C-165.6 49.6 -174.4 8.6 -162.5 -23.4C-150.6 -55.4 -118 -78.6 -87.4 -106.9C-56.9 -135.2 -28.5 -168.6 8.2 -178.3C44.8 -188 89.6 -174.1 124.4 -146.6" fill="#BB004B"></path>
    </g>
</svg>
