<svg id="visual" viewBox="0 0 960 340" width="960" height="340" xmlns="http://www.w3.org/2000/svg" xmlns:xlink="http://www.w3.org/1999/xlink" version="1.1"><rect x="0" y="0" width="960" height="340" fill="#22a6b3"></rect><path d="M0 165L16 157C32 149 64 133 96 129.3C128 125.7 160 134.3 192 140C224 145.7 256 148.3 288 154.2C320 160 352 169 384 173.5C416 178 448 178 480 175.8C512 173.7 544 169.3 576 172.2C608 175 640 185 672 184.8C704 184.7 736 174.3 768 164.7C800 155 832 146 864 145.2C896 144.3 928 151.7 944 155.3L960 159L960 0L944 0C928 0 896 0 864 0C832 0 800 0 768 0C736 0 704 0 672 0C640 0 608 0 576 0C544 0 512 0 480 0C448 0 416 0 384 0C352 0 320 0 288 0C256 0 224 0 192 0C160 0 128 0 96 0C64 0 32 0 16 0L0 0Z" fill="#c5a159"></path><path d="M0 101L16 101.7C32 102.3 64 103.7 96 100.7C128 97.7 160 90.3 192 96C224 101.7 256 120.3 288 128.3C320 136.3 352 133.7 384 127.2C416 120.7 448 110.3 480 104.2C512 98 544 96 576 93.5C608 91 640 88 672 86.7C704 85.3 736 85.7 768 85.3C800 85 832 84 864 89.3C896 94.7 928 106.3 944 112.2L960 118L960 0L944 0C928 0 896 0 864 0C832 0 800 0 768 0C736 0 704 0 672 0C640 0 608 0 576 0C544 0 512 0 480 0C448 0 416 0 384 0C352 0 320 0 288 0C256 0 224 0 192 0C160 0 128 0 96 0C64 0 32 0 16 0L0 0Z" fill="#cb843c"></path><path d="M0 63L16 69.8C32 76.7 64 90.3 96 91C128 91.7 160 79.3 192 71C224 62.7 256 58.3 288 57.3C320 56.3 352 58.7 384 63.2C416 67.7 448 74.3 480 80.2C512 86 544 91 576 89.7C608 88.3 640 80.7 672 75.2C704 69.7 736 66.3 768 65.5C800 64.7 832 66.3 864 68.5C896 70.7 928 73.3 944 74.7L960 76L960 0L944 0C928 0 896 0 864 0C832 0 800 0 768 0C736 0 704 0 672 0C640 0 608 0 576 0C544 0 512 0 480 0C448 0 416 0 384 0C352 0 320 0 288 0C256 0 224 0 192 0C160 0 128 0 96 0C64 0 32 0 16 0L0 0Z" fill="#d2622e"></path><path d="M0 69L16 63C32 57 64 45 96 40.5C128 36 160 39 192 38.7C224 38.3 256 34.7 288 33.8C320 33 352 35 384 34.7C416 34.3 448 31.7 480 37.2C512 42.7 544 56.3 576 56.7C608 57 640 44 672 40C704 36 736 41 768 44.5C800 48 832 50 864 54C896 58 928 64 944 67L960 70L960 0L944 0C928 0 896 0 864 0C832 0 800 0 768 0C736 0 704 0 672 0C640 0 608 0 576 0C544 0 512 0 480 0C448 0 416 0 384 0C352 0 320 0 288 0C256 0 224 0 192 0C160 0 128 0 96 0C64 0 32 0 16 0L0 0Z" fill="#d63031"></path></svg>