<svg id="visual" viewBox="0 0 960 340" width="960" height="340" xmlns="http://www.w3.org/2000/svg" xmlns:xlink="http://www.w3.org/1999/xlink" version="1.1"><path d="M0 69L87 52L175 96L262 72L349 137L436 130L524 161L611 161L698 52L785 59L873 117L960 110L960 0L873 0L785 0L698 0L611 0L524 0L436 0L349 0L262 0L175 0L87 0L0 0Z" fill="#e67e22"></path><path d="M0 106L87 110L175 164L262 134L349 181L436 198L524 202L611 195L698 100L785 120L873 168L960 178L960 108L873 115L785 57L698 50L611 159L524 159L436 128L349 135L262 70L175 94L87 50L0 67Z" fill="#8a7c11"></path><path d="M0 229L87 246L175 242L262 259L349 232L436 266L524 273L611 253L698 239L785 249L873 283L960 225L960 176L873 166L785 118L698 98L611 193L524 200L436 196L349 179L262 132L175 162L87 108L0 104Z" fill="#45672f"></path><path d="M0 300L87 283L175 290L262 297L349 314L436 307L524 310L611 293L698 283L785 293L873 317L960 293L960 223L873 281L785 247L698 237L611 251L524 271L436 264L349 230L262 257L175 240L87 244L0 227Z" fill="#244a3b"></path><path d="M0 341L87 341L175 341L262 341L349 341L436 341L524 341L611 341L698 341L785 341L873 341L960 341L960 291L873 315L785 291L698 281L611 291L524 308L436 305L349 312L262 295L175 288L87 281L0 298Z" fill="#282929"></path></svg>