<svg id="visual" viewBox="0 0 960 340" width="960" height="340"
    xmlns="http://www.w3.org/2000/svg"
    xmlns:xlink="http://www.w3.org/1999/xlink" version="1.1">
    <path d="M0 110L87 110L87 134L175 134L175 113L262 113L262 137L349 137L349 137L436 137L436 147L524 147L524 62L611 62L611 76L698 76L698 117L785 117L785 52L873 52L873 69L960 69L960 127L960 0L960 0L873 0L873 0L785 0L785 0L698 0L698 0L611 0L611 0L524 0L524 0L436 0L436 0L349 0L349 0L262 0L262 0L175 0L175 0L87 0L87 0L0 0Z" fill="#d63031"></path>
    <path d="M0 134L87 134L87 191L175 191L175 140L262 140L262 161L349 161L349 191L436 191L436 181L524 181L524 117L611 117L611 120L698 120L698 168L785 168L785 120L873 120L873 130L960 130L960 191L960 125L960 67L873 67L873 50L785 50L785 115L698 115L698 74L611 74L611 60L524 60L524 145L436 145L436 135L349 135L349 135L262 135L262 111L175 111L175 132L87 132L87 108L0 108Z" fill="#dc462c"></path>
    <path d="M0 246L87 246L87 273L175 273L175 229L262 229L262 276L349 276L349 266L436 266L436 239L524 239L524 222L611 222L611 242L698 242L698 253L785 253L785 256L873 256L873 266L960 266L960 259L960 189L960 128L873 128L873 118L785 118L785 166L698 166L698 118L611 118L611 115L524 115L524 179L436 179L436 189L349 189L349 159L262 159L262 138L175 138L175 189L87 189L87 132L0 132Z" fill="#e05a27"></path>
    <path d="M0 290L87 290L87 300L175 300L175 321L262 321L262 314L349 314L349 297L436 297L436 307L524 307L524 293L611 293L611 310L698 310L698 287L785 287L785 290L873 290L873 307L960 307L960 307L960 257L960 264L873 264L873 254L785 254L785 251L698 251L698 240L611 240L611 220L524 220L524 237L436 237L436 264L349 264L349 274L262 274L262 227L175 227L175 271L87 271L87 244L0 244Z" fill="#e46c24"></path>
    <path d="M0 341L87 341L87 341L175 341L175 341L262 341L262 341L349 341L349 341L436 341L436 341L524 341L524 341L611 341L611 341L698 341L698 341L785 341L785 341L873 341L873 341L960 341L960 341L960 305L960 305L873 305L873 288L785 288L785 285L698 285L698 308L611 308L611 291L524 291L524 305L436 305L436 295L349 295L349 312L262 312L262 319L175 319L175 298L87 298L87 288L0 288Z" fill="#e67e22"></path>
</svg>
